<?xml version="1.0" encoding="UTF-8" standalone="no"?>
<!DOCTYPE svg PUBLIC "-//W3C//DTD SVG 1.1//EN"
 "http://www.w3.org/Graphics/SVG/1.1/DTD/svg11.dtd">
<!-- Generated by graphviz version 2.40.1 (20161225.0304)
 -->
<!-- Title: dependencies Pages: 1 -->
<svg width="504pt" height="287pt"
 viewBox="0.00 0.00 504.00 287.00" xmlns="http://www.w3.org/2000/svg" xmlns:xlink="http://www.w3.org/1999/xlink">
<g id="graph0" class="graph" transform="scale(1 1) rotate(0) translate(4 283)">
<title>dependencies</title>
<polygon fill="#ffffff" stroke="transparent" points="-4,4 -4,-283 500,-283 500,4 -4,4"/>
<text text-anchor="start" x="227.0091" y="-42.4" font-family="sans-serif" font-weight="bold" font-size="14.00" fill="#000000">Legend</text>
<polygon fill="#ffffb3" stroke="transparent" points="14,-10 14,-30 34,-30 34,-10 14,-10"/>
<text text-anchor="start" x="37.629" y="-15.4" font-family="sans-serif" font-size="14.00" fill="#000000"> &#160;Declarations</text>
<polygon fill="#8dd3c7" stroke="transparent" points="127,-10 127,-30 147,-30 147,-10 127,-10"/>
<text text-anchor="start" x="150.7251" y="-15.4" font-family="sans-serif" font-size="14.00" fill="#000000"> &#160;Module</text>
<polygon fill="#80b1d3" stroke="transparent" points="213,-10 213,-30 233,-30 233,-10 213,-10"/>
<text text-anchor="start" x="236.7812" y="-15.4" font-family="sans-serif" font-size="14.00" fill="#000000"> &#160;Bootstrap</text>
<polygon fill="#fdb462" stroke="transparent" points="310,-10 310,-30 330,-30 330,-10 310,-10"/>
<text text-anchor="start" x="333.6732" y="-15.4" font-family="sans-serif" font-size="14.00" fill="#000000"> &#160;Providers</text>
<polygon fill="#fb8072" stroke="transparent" points="406,-10 406,-30 426,-30 426,-10 406,-10"/>
<text text-anchor="start" x="429.7258" y="-15.4" font-family="sans-serif" font-size="14.00" fill="#000000"> &#160;Exports</text>
<g id="clust1" class="cluster">
<title>cluster_AppModule</title>
<polygon fill="none" stroke="#000000" stroke-dasharray="1,5" points="130,-146 130,-271 351,-271 351,-146 130,-146"/>
</g>
<g id="clust3" class="cluster">
<title>cluster_AppModule_imports</title>
<polygon fill="none" stroke="#000000" points="138,-154 138,-206 343,-206 343,-154 138,-154"/>
</g>
<g id="clust7" class="cluster">
<title>cluster_CatsModule</title>
<polygon fill="none" stroke="#000000" stroke-dasharray="1,5" points="220,-70 220,-138 366,-138 366,-70 220,-70"/>
</g>
<g id="clust12" class="cluster">
<title>cluster_CatsModule_providers</title>
<polygon fill="none" stroke="#000000" points="228,-78 228,-130 358,-130 358,-78 228,-78"/>
</g>
<!-- CatsModule -->
<g id="node1" class="node">
<title>CatsModule</title>
<polygon fill="#8dd3c7" stroke="#000000" points="335.4373,-198 332.4373,-202 311.4373,-202 308.4373,-198 250.5627,-198 250.5627,-162 335.4373,-162 335.4373,-198"/>
<text text-anchor="middle" x="293" y="-175.8" font-family="Times,serif" font-size="14.00" fill="#000000">CatsModule</text>
</g>
<!-- AppModule -->
<g id="node3" class="node">
<title>AppModule</title>
<polygon fill="#8dd3c7" stroke="#000000" points="282.6571,-263 279.6571,-267 258.6571,-267 255.6571,-263 199.3429,-263 199.3429,-227 282.6571,-227 282.6571,-263"/>
<text text-anchor="middle" x="241" y="-240.8" font-family="Times,serif" font-size="14.00" fill="#000000">AppModule</text>
</g>
<!-- CatsModule&#45;&gt;AppModule -->
<g id="edge1" class="edge">
<title>CatsModule&#45;&gt;AppModule</title>
<path fill="none" stroke="#000000" d="M266.8051,-198.1061C266.8051,-198.1061 266.8051,-216.991 266.8051,-216.991"/>
<polygon fill="#000000" stroke="#000000" points="263.3051,-216.9909 266.8051,-226.991 270.3051,-216.991 263.3051,-216.9909"/>
</g>
<!-- CoreModule -->
<g id="node2" class="node">
<title>CoreModule</title>
<polygon fill="#8dd3c7" stroke="#000000" points="232.2619,-198 229.2619,-202 208.2619,-202 205.2619,-198 145.7381,-198 145.7381,-162 232.2619,-162 232.2619,-198"/>
<text text-anchor="middle" x="189" y="-175.8" font-family="Times,serif" font-size="14.00" fill="#000000">CoreModule</text>
</g>
<!-- CoreModule&#45;&gt;AppModule -->
<g id="edge2" class="edge">
<title>CoreModule&#45;&gt;AppModule</title>
<path fill="none" stroke="#000000" d="M215.7763,-198.1061C215.7763,-198.1061 215.7763,-216.991 215.7763,-216.991"/>
<polygon fill="#000000" stroke="#000000" points="212.2764,-216.9909 215.7763,-226.991 219.2764,-216.991 212.2764,-216.9909"/>
</g>
<!-- CatsService -->
<g id="node4" class="node">
<title>CatsService</title>
<ellipse fill="#fdb462" stroke="#000000" cx="293" cy="-104" rx="57.3166" ry="18"/>
<text text-anchor="middle" x="293" y="-99.8" font-family="Times,serif" font-size="14.00" fill="#000000">CatsService</text>
</g>
<!-- CatsService&#45;&gt;CatsModule -->
<g id="edge3" class="edge">
<title>CatsService&#45;&gt;CatsModule</title>
<path fill="none" stroke="#000000" d="M293,-122.0109C293,-122.0109 293,-151.855 293,-151.855"/>
<polygon fill="#000000" stroke="#000000" points="289.5001,-151.8549 293,-161.855 296.5001,-151.855 289.5001,-151.8549"/>
</g>
</g>
</svg>
